<?xml version="1.0" standalone="no"?>
<!DOCTYPE svg PUBLIC "-//W3C//DTD SVG 20010904//EN"
 "http://www.w3.org/TR/2001/REC-SVG-20010904/DTD/svg10.dtd">
<svg version="1.0" xmlns="http://www.w3.org/2000/svg"
 width="612.000000pt" height="410.000000pt" viewBox="0 0 612.000000 410.000000"
 preserveAspectRatio="xMidYMid meet">

<g transform="translate(0.000000,410.000000) scale(0.100000,-0.100000)"
fill="#000000" stroke="none">
<path d="M0 2050 l0 -2050 254 0 c237 0 255 1 260 18 17 52 58 268 66 342 4
47 11 92 14 100 4 10 -11 39 -39 75 -111 145 -130 171 -166 234 l-39 68 21 59
c15 42 23 93 27 174 4 108 3 119 -21 171 -13 30 -49 120 -78 199 -56 154 -66
224 -40 272 12 23 11 33 -10 88 -23 59 -25 61 -54 56 -106 -21 -123 -20 -155
12 -22 23 -30 40 -30 67 0 30 8 44 50 84 27 26 50 52 50 57 0 5 22 25 48 44
26 19 81 62 123 95 95 75 169 128 192 137 21 9 213 154 222 168 3 5 2 10 -4
10 -5 0 -11 -6 -14 -12 -2 -7 -8 -9 -13 -5 -11 11 17 28 37 22 8 -3 34 11 57
31 23 19 42 32 42 28 0 -4 16 7 35 26 34 33 50 90 25 90 -5 0 -10 -4 -10 -9 0
-6 -16 -3 -36 5 -26 11 -40 12 -47 5 -6 -6 -24 -11 -39 -11 -32 0 -48 27 -40
66 4 20 12 23 71 28 36 4 83 7 104 8 20 1 37 4 37 8 0 3 12 18 26 34 23 27 31
29 82 27 30 -1 71 -9 90 -17 44 -18 45 -18 36 9 -9 31 -44 63 -53 48 -5 -7
-12 -3 -21 14 -7 14 -17 25 -22 25 -4 0 -8 8 -8 18 0 13 2 14 9 4 7 -11 10
-10 15 3 3 9 6 25 6 36 0 11 7 19 16 19 12 0 14 7 9 33 -4 17 -13 42 -21 55
-13 19 -21 22 -52 17 -36 -6 -36 -5 -13 8 26 16 22 21 -26 32 -42 9 -93 -16
-117 -56 -14 -24 -17 -43 -13 -81 5 -39 3 -50 -9 -55 -49 -19 -65 100 -23 171
29 49 89 76 172 77 44 0 56 3 42 9 -15 6 -16 9 -4 9 9 1 24 -8 34 -19 10 -11
15 -20 12 -20 -3 0 10 -23 28 -50 19 -28 37 -66 41 -85 3 -19 10 -35 15 -35 5
0 9 -11 9 -24 0 -13 5 -26 11 -28 6 -2 13 -30 15 -63 5 -79 13 -115 30 -142
20 -32 34 -29 30 6 l-3 28 101 1 c56 1 124 2 151 2 28 0 113 -1 190 -2 l140
-3 3 -42 c3 -39 1 -42 -25 -46 l-28 -4 30 -2 c26 -2 27 -4 10 -10 -15 -6 -5
-10 40 -15 33 -4 67 -11 76 -16 18 -9 116 -25 259 -40 60 -7 107 -18 127 -30
26 -15 39 -17 59 -10 62 24 106 2 78 -39 -21 -30 -86 -27 -96 4 -3 12 -6 -1
-7 -33 -1 -47 -4 -54 -32 -71 -17 -11 -99 -36 -181 -57 -140 -34 -149 -38
-144 -58 4 -11 13 -51 22 -88 l16 -68 53 0 c30 0 80 7 111 15 32 8 59 13 61
11 2 -2 -12 -21 -32 -41 -19 -21 -35 -47 -35 -59 0 -16 3 -17 9 -7 6 10 10 10
16 1 6 -9 10 -9 16 1 13 21 11 29 -6 23 -28 -11 -15 6 25 31 30 19 47 23 71
18 23 -4 30 -3 25 5 -9 15 4 15 40 2 18 -7 30 -7 40 1 15 12 54 3 54 -12 0 -6
5 -7 10 -4 6 3 10 -4 10 -17 1 -27 18 -52 42 -61 12 -4 15 -2 11 9 -3 7 -9 14
-14 14 -16 0 -10 22 16 56 24 31 26 41 24 131 -1 63 3 116 13 148 10 35 12 60
6 85 -34 132 -33 240 2 369 12 42 26 92 31 112 5 20 27 55 49 78 22 23 40 43
40 46 0 18 58 87 89 108 56 37 177 77 254 84 l68 6 70 -74 c99 -105 127 -164
148 -317 l8 -52 -22 20 c-48 46 -176 75 -203 48 -20 -20 -14 -27 26 -33 60
-10 171 -55 182 -75 6 -12 5 -23 -4 -36 -14 -18 -16 -17 -57 15 -44 36 -102
61 -128 56 -9 -2 -24 -4 -33 -4 -11 -1 -15 -6 -12 -16 4 -8 1 -15 -5 -15 -17
0 -13 -17 6 -24 9 -4 20 -1 24 5 4 7 14 9 24 6 9 -4 13 -11 10 -17 -4 -6 -11
-8 -16 -5 -5 4 -9 1 -9 -4 0 -6 6 -11 14 -11 8 0 16 -6 19 -14 3 -8 14 -15 24
-16 10 0 45 -4 78 -8 l60 -7 -3 -35 c-2 -19 -8 -43 -13 -52 -5 -9 -9 -26 -9
-38 0 -13 -12 -27 -30 -38 -17 -9 -33 -27 -36 -39 -4 -14 -24 -30 -55 -45 -27
-13 -49 -26 -49 -30 0 -12 15 -9 28 4 8 8 12 9 12 1 0 -6 -13 -24 -30 -40 -16
-15 -30 -33 -30 -40 0 -19 -147 -84 -244 -108 l-89 -22 49 -12 c27 -7 78 -15
114 -17 38 -2 65 -8 65 -14 0 -6 6 -15 14 -20 11 -6 12 -12 4 -22 -24 -29 -53
-90 -48 -99 4 -5 -1 -9 -9 -9 -18 0 -72 -88 -67 -110 1 -8 9 -19 17 -23 10 -6
11 -14 4 -33 -15 -38 -12 -47 11 -41 18 5 20 2 14 -23 -6 -29 4 -34 33 -17 17
11 16 -31 -3 -67 -20 -38 -19 -43 6 -20 l21 19 -16 -39 c-21 -50 -20 -53 4
-31 12 11 20 13 20 6 0 -7 3 -10 7 -8 5 3 7 -19 7 -49 -1 -29 2 -52 6 -49 11
7 20 -32 20 -86 0 -26 5 -71 10 -100 l11 -54 -36 -29 c-30 -24 -33 -31 -23
-44 11 -13 10 -14 -9 -8 -12 4 -24 2 -28 -4 -4 -7 -1 -10 6 -9 36 7 142 -90
241 -221 14 -19 62 -74 106 -123 l80 -87 6 -73 c13 -142 14 -146 49 -152 18
-3 53 0 78 8 l47 14 5 -31 c3 -17 3 -53 0 -79 -4 -29 -2 -47 5 -47 12 0 42 44
42 62 0 7 5 20 10 28 8 13 12 11 27 -10 23 -32 34 -68 22 -76 -14 -8 -11 -58
7 -93 l16 -31 28 20 c15 11 33 20 39 20 6 0 11 4 11 10 0 5 7 7 15 4 8 -4 15
-13 15 -21 0 -17 28 -48 36 -40 3 3 -4 27 -15 52 -12 28 -21 69 -21 97 0 63
-20 92 -103 151 -55 40 -179 165 -279 282 -78 91 -178 289 -166 326 6 17 38
21 70 8 19 -8 43 -40 84 -113 71 -126 177 -268 241 -322 125 -107 186 -150
289 -200 124 -60 291 -118 374 -129 85 -11 100 -20 100 -55 0 -28 -29 -70 -49
-70 -62 0 -329 74 -403 111 -59 30 -63 27 -60 -43 4 -67 -8 -221 -15 -200 -3
6 -12 12 -20 12 -12 0 -13 -3 -5 -13 15 -17 -21 -77 -45 -77 -15 0 -16 2 -3
10 8 5 13 10 10 11 -3 0 -17 2 -33 4 -31 4 -97 42 -97 56 0 5 -6 9 -14 9 -8 0
-17 7 -20 16 -3 8 -10 12 -16 9 -12 -8 -47 11 -40 22 3 4 -16 9 -42 11 -27 2
-48 7 -48 13 0 5 -7 9 -16 9 -10 0 -14 -6 -11 -15 10 -24 -15 -30 -34 -7 -12
15 -28 22 -53 22 -25 0 -36 4 -36 15 0 8 -4 15 -9 15 -5 0 -17 7 -25 16 -9 9
-16 11 -16 4 0 -6 -5 -8 -11 -5 -6 4 -8 13 -5 21 7 18 1 18 -19 -2 -15 -15
-15 -14 -9 10 4 18 2 27 -9 32 -9 3 -26 26 -37 50 -12 24 -26 41 -32 38 -5 -3
-9 0 -7 7 3 28 -1 39 -16 39 -8 0 -15 9 -15 21 0 11 -4 18 -9 15 -12 -8 -23
22 -14 37 3 7 3 9 -2 5 -10 -9 -45 43 -107 161 -28 53 -55 100 -59 106 -5 5
-9 19 -9 32 0 27 -34 47 -73 45 -16 -2 -36 6 -49 18 -18 17 -35 20 -102 20
-45 0 -109 5 -143 10 -70 12 -121 -1 -197 -48 l-43 -27 -6 -95 c-3 -52 -3 -97
1 -100 13 -10 33 -51 58 -121 25 -68 25 -72 8 -90 -17 -19 -17 -26 0 -152 9
-73 29 -196 43 -274 l27 -143 83 0 c81 0 83 1 83 24 0 14 -4 36 -10 50 -5 14
-6 26 -1 26 5 0 5 17 -1 38 -5 20 -10 57 -12 82 -4 49 -13 129 -22 202 -5 38
-2 50 15 67 20 20 20 22 4 73 -28 94 -45 137 -59 149 -49 40 43 134 107 111
13 -5 30 -7 37 -5 7 3 19 0 26 -6 22 -19 76 6 76 35 0 18 5 24 23 24 34 0 51
-15 42 -36 -13 -30 -5 -66 24 -114 27 -45 48 -100 56 -142 3 -13 9 -32 14 -43
27 -59 41 -94 41 -102 0 -5 13 -27 30 -50 16 -22 26 -43 23 -47 -4 -4 3 -9 15
-13 12 -3 22 -13 22 -22 0 -10 3 -21 7 -24 3 -4 8 -18 9 -32 3 -24 0 -25 -51
-25 -39 0 -54 -4 -59 -16 -9 -25 -7 -56 4 -49 6 3 10 1 10 -5 0 -6 12 -15 26
-20 23 -9 26 -14 20 -42 -3 -17 -13 -39 -21 -48 -17 -19 -20 -40 -5 -40 6 0
10 6 10 13 0 8 4 7 11 -3 8 -12 9 -10 4 8 -8 27 11 30 20 2 6 -20 15 -20 1170
-20 l1164 0 5 43 c3 23 10 145 16 271 9 165 9 231 1 239 -8 8 -11 7 -11 -2 0
-10 -4 -11 -13 -3 -8 7 -29 7 -68 -2 -63 -15 -99 -35 -99 -55 0 -27 -13 -2
-20 41 -13 72 -9 74 147 82 75 4 138 8 139 9 2 1 6 67 10 145 4 78 10 142 15
142 12 0 22 -127 15 -201 -4 -38 -5 -72 -3 -76 3 -5 29 -6 57 -4 l52 3 -6 72
c-8 86 8 293 28 358 7 26 28 66 46 88 26 33 28 40 14 40 -9 0 -14 3 -11 7 11
10 101 24 197 29 47 3 102 13 123 22 l37 16 0 1418 0 1418 -1317 0 c-904 -1
-1312 -4 -1300 -11 9 -5 52 -9 95 -7 42 1 110 2 150 0 l72 -2 0 -50 c0 -27 -4
-50 -8 -50 -12 0 -52 44 -52 58 0 7 -16 12 -40 12 -43 0 -45 -4 -30 -44 8 -23
7 -26 -24 -31 -18 -4 -67 -4 -107 0 -41 3 -118 6 -171 5 -53 0 -108 4 -122 9
-27 11 -45 66 -27 84 22 22 9 27 -71 27 l-83 0 26 -23 c37 -31 46 -73 18 -87
-22 -13 -253 -22 -306 -13 -18 3 -31 9 -28 13 3 5 1 12 -5 15 -8 5 -7 11 1 21
9 10 9 18 2 25 -17 17 -48 6 -46 -16 1 -11 -5 -24 -13 -28 -8 -4 -14 -14 -14
-21 0 -24 -55 -34 -107 -20 -24 7 -33 47 -13 59 6 4 8 11 4 16 -3 5 0 16 6 24
9 11 37 15 114 15 55 0 108 5 116 10 10 6 -56 10 -195 10 l-210 0 2 -69 c2
-78 -2 -82 -66 -74 -39 5 -42 8 -47 44 -5 30 -11 39 -26 39 -11 0 -28 5 -39
11 -20 10 -20 11 -3 30 17 19 16 19 -50 19 -60 0 -69 -3 -90 -27 -22 -25 -26
-26 -51 -15 -17 8 -25 18 -21 27 4 12 -6 15 -53 15 -50 0 -59 -3 -64 -20 -3
-14 -10 -18 -21 -14 -13 5 -14 9 -5 20 10 12 -132 14 -945 14 l-956 0 0 -2050z
m4618 1985 c4 -50 -7 -59 -62 -51 l-46 7 20 29 c11 15 20 35 20 43 0 19 19 26
45 17 14 -5 21 -18 23 -45z m-2918 14 c0 -5 -4 -9 -10 -9 -5 0 -10 7 -10 16 0
8 5 12 10 9 6 -3 10 -10 10 -16z m2304 -36 c-19 -19 -25 -14 -17 15 4 18 8 20
19 11 11 -9 11 -14 -2 -26z m166 8 c5 -11 10 -22 10 -25 0 -3 -37 -5 -82 -4
-46 0 -69 3 -52 5 18 2 40 13 50 23 25 25 61 25 74 1z m-3154 -45 c-16 -26
-46 -36 -46 -16 0 6 4 10 8 10 5 0 14 12 21 27 9 19 15 23 23 15 8 -8 6 -18
-6 -36z m709 25 c3 -5 1 -12 -5 -16 -5 -3 -10 1 -10 9 0 18 6 21 15 7z m2598
2 c3 -5 -15 -9 -39 -9 -24 -1 -44 2 -44 7 0 11 77 12 83 2z m-1098 -109 c24
-12 37 -13 76 -4 39 10 52 9 85 -6 40 -18 48 -20 97 -23 16 0 26 -5 22 -10 -3
-5 -1 -12 5 -16 5 -3 10 -13 10 -21 0 -10 -12 -14 -41 -14 -32 0 -42 4 -46 19
-3 11 -12 22 -20 25 -17 7 -53 -10 -53 -24 0 -13 -103 -13 -115 -1 -22 20 -71
22 -92 4 -16 -14 -34 -17 -86 -15 -56 3 -66 7 -70 24 -5 17 -11 20 -36 15 -17
-4 -31 -2 -31 3 0 5 -7 7 -15 4 -11 -5 -15 1 -15 20 0 25 1 26 67 26 54 0 71
-4 89 -21 24 -23 64 -19 64 6 0 26 62 32 105 9z m1567 -3 c18 -15 34 -18 64
-14 21 2 53 -1 69 -8 17 -7 33 -13 37 -13 13 -2 49 -46 44 -55 -6 -10 -200
-20 -408 -22 -136 -2 -148 0 -177 20 -33 24 -43 72 -19 88 13 7 163 18 294 21
57 2 76 -2 96 -17z m-525 1 c6 -4 13 -34 15 -67 l3 -60 -120 0 c-115 0 -152 6
-166 28 -4 6 -15 0 -25 -12 -18 -20 -27 -22 -141 -20 -67 0 -126 -2 -132 -6
-6 -3 -22 5 -36 19 -18 18 -25 36 -25 64 l0 40 53 6 c28 4 67 2 86 -3 19 -6
39 -7 45 -3 6 3 100 7 210 9 109 1 201 4 204 7 7 8 15 7 29 -2z m-1988 -8 c32
-7 33 -24 2 -24 -10 0 -26 -9 -36 -20 -20 -22 -35 -18 -35 9 0 17 18 41 31 41
3 0 20 -3 38 -6z m524 -14 c8 -30 -6 -32 -30 -4 l-21 24 23 0 c14 0 25 -7 28
-20z m-898 -6 c22 -15 26 -15 40 0 9 9 23 16 31 16 18 0 44 -24 44 -39 0 -17
57 -13 64 5 10 25 26 6 26 -31 0 -42 -11 -46 -119 -44 -47 0 -93 -2 -101 -5
-8 -4 -33 3 -55 14 -21 11 -47 20 -56 20 -10 0 -19 6 -22 13 -3 7 -9 0 -16
-15 -7 -19 -18 -28 -33 -29 -13 0 -63 -1 -113 -2 l-90 -2 2 44 c3 56 15 69 45
49 18 -11 28 -12 45 -3 30 16 153 11 164 -6 5 -8 9 -9 9 -3 0 31 96 44 135 18z
m550 6 c17 -4 23 -8 14 -9 -11 -1 -19 -14 -23 -36 -6 -28 -11 -35 -30 -35 -13
0 -29 -7 -36 -15 -7 -9 -23 -15 -34 -13 -26 4 -23 36 5 56 28 19 24 42 -8 43
-25 2 -24 2 7 9 45 9 68 9 105 0z m-1081 -16 c19 -18 21 -74 4 -75 -35 -3 -62
5 -80 23 l-21 21 27 24 c32 27 49 29 70 7z m1249 9 c-13 -2 -33 -2 -45 0 -13
2 -3 4 22 4 25 0 35 -2 23 -4z m-18 -23 c3 -5 1 -10 -4 -10 -6 0 -11 5 -11 10
0 6 2 10 4 10 3 0 8 -4 11 -10z m345 -26 c0 -8 -4 -12 -10 -9 -5 3 -10 10 -10
16 0 5 5 9 10 9 6 0 10 -7 10 -16z m-1890 -34 c-20 -12 -29 -4 -23 21 5 19 7
19 22 4 14 -14 14 -17 1 -25z m1698 13 c2 -8 -5 -13 -17 -13 -12 0 -21 -5 -21
-10 0 -17 -122 -8 -128 9 -4 11 3 12 29 8 22 -4 43 -1 59 8 29 17 72 16 78 -2z
m-438 -3 c0 -5 -2 -10 -4 -10 -2 0 -12 -3 -20 -6 -12 -5 -15 -2 -10 10 7 17
34 22 34 6z m160 -20 c0 -5 -9 -10 -19 -10 -11 0 -23 5 -26 10 -4 6 5 10 19
10 14 0 26 -4 26 -10z m-201 -94 c79 -3 146 -7 149 -10 3 -4 -4 -17 -16 -29
l-22 -24 26 -11 c33 -16 47 -6 42 29 -3 21 0 30 14 35 10 3 21 3 26 0 10 -6 8
-56 -4 -64 -5 -4 -9 -14 -9 -22 0 -22 -50 -28 -209 -25 -92 2 -152 7 -167 16
-13 7 -45 11 -71 10 -52 -3 -118 17 -118 34 0 7 9 20 21 31 17 15 22 16 29 4
7 -12 10 -12 16 3 4 12 18 17 48 18 22 0 50 4 61 8 11 5 25 7 30 5 6 -1 75 -5
154 -8z m971 -18 c0 -16 -5 -19 -25 -14 -19 5 -23 3 -19 -9 5 -12 -4 -15 -50
-15 -31 0 -56 -4 -56 -8 0 -8 -59 -33 -76 -31 -5 0 9 9 31 20 l40 19 -35 -6
c-19 -4 -39 -10 -45 -14 -20 -15 -51 -17 -63 -3 -11 11 -7 13 20 14 27 1 28 3
8 6 -14 2 -35 9 -47 15 -12 6 -36 8 -53 4 -33 -6 -90 16 -90 35 0 8 45 9 153
3 83 -4 159 -7 167 -6 68 5 100 9 106 14 11 12 34 -4 34 -24z m730 16 c7 -7 8
-31 4 -69 l-7 -58 -156 7 c-93 4 -172 2 -196 -4 -49 -12 -171 14 -196 42 -9
10 -24 18 -33 18 -10 0 -14 5 -11 10 3 6 -1 13 -9 16 -20 8 -21 30 -2 41 23
13 593 10 606 -3z m-1260 -4 c0 -5 -9 -19 -20 -30 -22 -22 -19 -40 6 -40 8 0
14 9 14 20 0 13 5 18 15 14 8 -4 13 -10 10 -14 -3 -5 1 -11 7 -13 8 -4 4 -8
-9 -12 -13 -4 -23 -11 -23 -16 0 -5 -13 -9 -29 -9 -27 0 -29 3 -33 48 -3 26
-3 50 -1 55 6 11 63 9 63 -3z m1933 4 c33 -5 47 -12 54 -28 11 -25 8 -75 -6
-89 -5 -5 -42 -9 -83 -7 -40 1 -80 1 -88 0 -8 0 -105 -3 -215 -5 -110 -3 -211
-6 -225 -7 -22 -3 -25 0 -22 27 1 17 3 44 2 62 0 20 7 36 18 42 19 11 489 15
565 5z m-3373 -13 c0 -9 -24 -21 -41 -21 -5 0 -9 7 -9 15 0 9 9 15 25 15 14 0
25 -4 25 -9z m-199 -44 c-16 -16 -26 0 -10 19 9 11 15 12 17 4 2 -6 -1 -17 -7
-23z m3809 -27 c13 -9 13 -11 0 -20 -18 -12 -50 -13 -50 -2 0 9 21 32 30 32 3
0 12 -5 20 -10z m-2045 -20 c4 -6 -14 -10 -47 -10 -38 0 -49 3 -38 10 20 13
77 13 85 0z m88 -7 c-7 -2 -19 -2 -25 0 -7 3 -2 5 12 5 14 0 19 -2 13 -5z
m-819 -161 c-9 -77 -4 -74 -112 -74 -53 0 -139 0 -190 -1 -62 -1 -95 2 -100
10 -5 9 -27 9 -81 2 -62 -7 -77 -6 -91 6 -9 8 -20 12 -24 8 -4 -4 -4 0 -1 9 4
9 2 19 -4 23 -17 10 -13 52 6 59 9 4 82 6 162 6 80 -1 153 1 162 5 8 3 30 -1
49 -8 30 -13 31 -15 14 -25 -14 -8 -16 -14 -7 -23 14 -14 33 -3 33 20 0 30 22
40 90 43 92 4 101 -2 94 -60z m463 57 c137 -1 151 -2 146 -17 -5 -14 -2 -14
16 3 19 16 24 17 32 5 6 -11 11 -12 17 -4 4 6 18 14 32 18 21 6 19 1 -18 -34
-24 -23 -46 -39 -49 -36 -3 3 -1 12 5 19 16 18 3 30 -15 15 -8 -7 -35 -11 -59
-9 -26 1 -44 -2 -44 -8 0 -6 9 -11 20 -11 17 0 20 -6 18 -27 -2 -23 1 -27 17
-25 17 3 18 1 7 -10 -16 -16 -469 -22 -489 -6 -7 6 -13 29 -13 52 0 23 6 50
13 59 13 17 87 27 167 21 25 -2 113 -4 197 -5z m1373 -10 c10 -17 8 -21 -9
-26 -12 -3 -21 -11 -21 -18 0 -15 33 -25 50 -15 18 11 49 0 44 -15 -3 -7 -1
-16 5 -20 26 -15 4 -20 -108 -23 -114 -3 -120 -2 -131 19 -7 12 -15 17 -19 12
-9 -15 -36 -22 -50 -14 -8 5 -10 18 -5 34 7 29 19 35 27 14 3 -8 22 -14 42
-15 23 -1 43 -8 51 -19 13 -17 13 -17 14 0 0 9 5 17 11 17 16 0 -12 23 -45 38
l-29 13 26 14 c15 8 46 16 70 18 23 2 47 4 54 5 7 1 17 -7 23 -19z m553 -1 c2
-7 0 -21 -5 -30 -6 -13 -3 -21 11 -30 10 -6 17 -18 14 -25 -7 -17 -69 -47 -82
-38 -12 7 -15 117 -4 128 11 12 61 8 66 -5z m770 -11 c4 3 7 2 7 -4 0 -14 -42
-25 -54 -13 -5 5 -6 16 -2 26 6 15 8 16 25 0 9 -9 21 -13 24 -9z m-1060 2 c15
1 27 -3 27 -9 0 -16 27 -11 34 6 6 15 8 15 26 -1 27 -24 8 -52 -35 -51 -24 1
-31 5 -28 17 6 20 -20 31 -50 20 -38 -14 -144 -13 -169 1 -22 12 -21 13 22 19
25 4 68 5 95 2 28 -3 62 -5 78 -4z m-2810 -34 c-4 -56 -22 -75 -70 -75 -27 0
-42 4 -38 10 3 6 13 10 20 10 25 0 36 34 19 58 -13 19 -12 21 8 25 50 10 63 4
61 -28z m3280 -11 c43 -8 48 -25 12 -48 -35 -23 -92 -20 -124 6 l-27 23 31 16
c16 9 39 15 50 13 11 -2 37 -7 58 -10z m-1948 -13 c3 -5 2 -12 -3 -15 -5 -3
-9 1 -9 9 0 17 3 19 12 6z m-25 -5 c0 -3 -4 -8 -10 -11 -5 -3 -10 -1 -10 4 0
6 5 11 10 11 6 0 10 -2 10 -4z m1473 -16 c8 0 7 -4 -1 -12 -9 -9 -16 -8 -30 6
-16 18 -16 19 1 12 10 -3 24 -6 30 -6z m-3048 -10 c3 -5 1 -10 -4 -10 -6 0
-11 5 -11 10 0 6 2 10 4 10 3 0 8 -4 11 -10z m145 -10 c0 -5 -12 -10 -26 -10
-14 0 -23 4 -19 10 3 6 15 10 26 10 10 0 19 -4 19 -10z m853 -90 c95 0 107 -2
108 -17 0 -11 3 -13 6 -5 2 6 16 12 30 12 15 0 23 -5 20 -12 -2 -7 -10 -12
-16 -10 -7 1 -36 -5 -65 -13 -29 -9 -60 -13 -69 -9 -10 3 -20 -2 -27 -15 -6
-12 -17 -21 -25 -21 -8 0 -15 -4 -15 -10 0 -5 9 -10 20 -10 11 0 20 -4 20 -8
0 -16 -163 -36 -206 -25 l-39 9 0 64 0 65 40 7 c22 3 56 4 75 2 19 -2 83 -4
143 -4z m-555 -15 c8 -3 42 0 77 6 34 7 74 9 88 5 23 -5 25 -10 21 -42 -2 -19
-11 -51 -19 -69 l-14 -34 -213 5 c-117 3 -222 5 -233 5 -11 1 -37 3 -58 6 -45
6 -54 29 -33 88 14 39 21 37 28 -10 4 -22 35 -32 51 -16 7 7 6 15 -2 25 -17
20 -7 34 21 29 13 -2 33 -1 45 4 23 8 218 7 241 -2z m910 3 c7 -7 12 -20 12
-29 0 -16 -4 -17 -30 -7 -36 12 -47 27 -29 39 19 12 33 11 47 -3z m1971 -12
c34 -31 25 -42 -41 -55 -35 -7 -92 -19 -128 -28 -36 -8 -105 -20 -154 -26 -82
-10 -90 -9 -102 8 -17 23 -18 66 -1 88 9 13 32 19 86 22 41 3 77 8 80 11 3 3
58 4 122 2 98 -2 120 -6 138 -22z m-1840 -49 c-27 -69 -31 -74 -40 -51 -21 52
9 122 45 108 13 -5 12 -13 -5 -57z m1304 46 c4 -2 7 -26 7 -53 0 -66 -23 -82
-112 -78 -62 3 -63 3 -74 38 -6 19 -14 52 -18 73 l-7 38 98 -7 c54 -3 101 -9
106 -11z m702 6 c4 -6 13 -8 21 -5 18 7 39 -36 30 -59 -8 -23 -62 -16 -60 7 1
10 -8 20 -20 23 -48 14 -75 28 -70 36 7 13 91 11 99 -2z m285 -30 c0 -11 -4
-17 -10 -14 -5 3 -10 13 -10 21 0 8 5 14 10 14 6 0 10 -9 10 -21z m760 -15 c0
-8 -4 -14 -10 -14 -5 0 -10 9 -10 21 0 11 5 17 10 14 6 -3 10 -13 10 -21z
m-1140 1 c0 -8 -7 -15 -15 -15 -16 0 -20 12 -8 23 11 12 23 8 23 -8z m420 -25
c0 -5 -2 -10 -4 -10 -3 0 -8 5 -11 10 -3 6 -1 10 4 10 6 0 11 -4 11 -10z
m-3900 -139 c0 -14 -6 -17 -26 -13 l-27 5 24 13 c31 17 29 17 29 -5z m833 -6
c27 -8 64 -16 83 -17 25 -1 34 -7 34 -20 0 -22 45 -35 65 -18 8 7 15 19 15 26
0 21 18 17 25 -6 4 -12 1 -27 -5 -35 -10 -12 -10 -18 0 -30 24 -29 -2 -39 -68
-26 -43 8 -67 9 -88 1 -16 -6 -42 -9 -59 -6 -16 3 -77 2 -135 -3 -107 -8 -140
-2 -140 24 0 18 14 19 40 3 16 -10 22 -10 32 0 11 11 9 17 -11 33 -13 10 -29
19 -37 19 -8 0 -14 5 -14 10 0 6 -5 10 -11 10 -7 0 -9 -10 -5 -25 9 -34 -9
-65 -38 -65 -21 0 -24 6 -29 52 -4 28 -2 57 3 63 13 15 76 9 123 -11 37 -17
38 -17 52 4 23 32 95 39 168 17z m458 4 c11 -5 17 -15 13 -21 -4 -6 1 -8 13
-4 11 4 31 2 44 -3 17 -7 19 -10 7 -10 -23 -1 -23 -6 2 -31 25 -25 35 -25 53
0 8 11 17 17 22 12 4 -4 5 1 2 11 -9 25 2 47 24 47 17 0 19 -8 19 -59 0 -63
-7 -94 -20 -86 -13 8 -153 28 -187 27 -31 -2 -31 -1 -28 41 4 40 3 40 -6 11
-10 -36 -32 -49 -49 -29 -9 10 -7 20 6 42 40 64 51 71 85 52z m1486 0 c7 -7
22 -7 51 2 62 18 76 8 68 -48 -3 -26 -14 -52 -24 -60 -9 -7 -51 -38 -92 -68
-41 -31 -91 -69 -112 -85 -20 -16 -48 -35 -62 -41 -14 -7 -33 -28 -42 -48 -9
-20 -20 -38 -23 -41 -16 -14 -73 -93 -117 -165 -52 -84 -53 -87 -104 -200 -28
-61 -58 -105 -74 -105 -12 0 -28 76 -23 110 4 33 52 151 78 190 5 8 16 29 23
45 8 17 33 55 55 85 22 30 50 70 63 87 13 18 27 33 32 33 17 0 76 51 70 61 -6
10 26 43 124 128 52 45 62 59 62 86 0 44 21 60 47 34z m-2443 -39 c16 0 14
-56 -3 -73 -9 -9 -10 -4 -5 20 3 18 2 33 -5 37 -6 4 -11 15 -10 24 0 11 3 12
6 5 2 -7 10 -13 17 -13z m-76 -51 c3 -22 -2 -28 -25 -35 -38 -11 -83 -12 -83
-1 0 5 9 22 21 39 17 23 27 29 53 26 25 -2 32 -8 34 -29z m3408 -60 c84 -13
164 -42 246 -89 38 -22 73 -40 78 -40 4 0 27 -10 50 -22 40 -22 53 -32 107
-90 33 -35 74 -68 84 -68 6 0 33 -21 61 -47 59 -56 163 -211 201 -303 26 -61
65 -225 56 -234 -2 -2 -15 -6 -28 -8 -25 -3 -31 4 -60 72 -5 14 -17 51 -26 82
-9 31 -26 69 -38 84 -12 16 -32 48 -44 74 -34 67 -61 110 -102 160 -20 24 -41
53 -46 65 -11 22 -93 67 -107 59 -4 -3 -8 -13 -8 -23 0 -9 -10 -27 -22 -39
-13 -11 -29 -28 -36 -36 -13 -16 -54 -20 -202 -21 -76 0 -80 2 -80 44 -1 30
-2 33 -11 18 -6 -10 -9 -27 -6 -38 7 -26 -8 -29 -163 -34 -90 -3 -140 8 -140
31 0 7 9 29 20 48 18 33 18 36 2 45 -32 18 -1 26 101 27 56 1 94 -2 83 -5 -17
-7 -16 -9 7 -24 36 -23 60 -22 52 2 -7 22 22 36 54 26 11 -3 22 -1 26 4 7 12
55 -7 55 -21 0 -10 186 -5 196 5 4 4 16 7 26 7 25 0 23 6 -14 40 -36 32 -105
60 -151 60 -19 0 -38 10 -57 30 -21 23 -37 30 -64 30 -32 0 -36 -3 -36 -25 0
-48 -41 -54 -333 -54 -144 1 -270 3 -279 6 -50 13 26 93 116 123 35 11 70 28
77 36 47 56 173 72 355 43z m-1495 -5 c42 -21 31 -28 -15 -9 -20 9 -48 13 -64
9 -21 -4 -24 -3 -12 5 21 15 56 13 91 -5z m-1221 -55 c0 -7 10 -9 26 -5 15 4
86 6 158 5 72 -2 163 -3 201 -4 143 -3 135 0 133 -44 -1 -26 -5 -38 -13 -34
-7 2 -15 -7 -19 -21 -3 -14 -11 -26 -16 -26 -16 0 -22 21 -10 35 10 12 10 18
0 30 -19 23 -30 18 -45 -19 -12 -28 -21 -35 -52 -38 -42 -6 -59 0 -45 14 14
14 2 57 -19 63 -23 7 -59 -2 -59 -16 0 -5 -18 -9 -40 -9 -33 0 -40 3 -40 20 0
19 -2 20 -34 6 -29 -12 -42 -12 -78 -2 -53 15 -74 11 -81 -15 -4 -16 -2 -19
11 -14 9 3 13 3 9 -1 -4 -4 -1 -14 6 -23 10 -14 10 -14 -4 -4 -11 9 -25 10
-50 3 -32 -9 -33 -8 -14 6 14 11 16 18 8 21 -7 3 -13 16 -13 29 0 14 6 31 13
39 14 17 67 20 67 4z m1985 -36 c16 -24 16 -28 2 -52 -29 -46 -97 -22 -97 34
0 50 66 63 95 18z m1357 -72 c65 -55 158 -158 202 -226 25 -37 36 -66 41 -113
4 -34 11 -64 16 -67 4 -3 6 -12 2 -21 -4 -11 -9 -12 -19 -3 -8 6 -14 18 -14
26 0 8 -13 26 -29 41 -15 15 -55 63 -89 107 -33 44 -96 115 -141 158 -82 79
-90 92 -70 128 15 29 40 21 101 -30z m-1066 -91 c28 0 66 -3 84 -6 33 -7 51
-31 32 -43 -6 -3 -12 -28 -14 -54 l-3 -48 -75 -6 c-41 -3 -146 -6 -234 -6
-165 1 -175 4 -176 45 0 9 6 23 14 30 7 8 17 24 20 36 9 28 46 53 110 73 46
15 54 15 120 -3 38 -10 93 -18 122 -18z m-3581 -40 c3 -6 -1 -7 -9 -4 -18 7
-21 14 -7 14 6 0 13 -4 16 -10z m-25 -20 c0 -5 -3 -10 -7 -11 -5 0 -16 -2 -25
-4 -10 -2 -21 2 -25 7 -4 7 2 9 15 6 12 -4 22 -2 22 3 0 5 5 9 10 9 6 0 10 -4
10 -10z m3820 -174 c24 -11 74 -17 155 -18 l120 -3 -3 -55 c-6 -81 -41 -98
-89 -41 -15 17 -25 22 -30 15 -10 -13 -109 -11 -143 3 -14 6 -47 13 -75 17
-27 4 -71 11 -97 17 -42 10 -52 8 -82 -11 -24 -14 -48 -20 -73 -18 -36 3 -38
5 -41 41 -4 42 -27 60 -46 36 -11 -14 -67 -41 -94 -45 -8 -2 -11 3 -8 13 5 11
2 13 -9 9 -11 -4 -19 3 -25 20 -14 35 -12 41 5 18 14 -18 14 -18 15 4 0 14 4
21 11 16 14 -9 348 -8 388 1 17 4 31 11 31 16 0 6 12 3 28 -5 15 -8 43 -22 62
-30z m-2098 10 c16 0 17 -8 12 -61 -3 -33 -8 -63 -11 -67 -8 -15 -51 -8 -49 7
0 9 -19 25 -49 38 -39 19 -55 22 -73 14 -29 -13 -57 8 -32 23 13 9 13 10 0 10
-14 1 36 34 52 35 3 0 10 4 15 8 4 5 33 5 63 1 30 -4 63 -7 72 -8z m2701 -106
c3 -12 -1 -21 -12 -23 -9 -3 -4 -5 12 -6 15 0 27 -5 27 -11 0 -6 -37 -10 -90
-10 -68 0 -97 4 -118 18 l-29 17 48 2 c27 1 51 -2 54 -7 4 -6 17 -10 31 -10
27 0 33 24 9 34 -21 8 -19 34 3 38 23 5 59 -18 65 -42z m317 -37 c0 -20 -24
-11 -28 10 -2 12 1 15 12 11 9 -3 16 -13 16 -21z m-735 -129 c27 -27 25 -44
-4 -44 -25 0 -32 -10 -21 -30 7 -13 6 -19 -4 -23 -9 -4 -12 4 -11 26 2 18 -2
38 -7 45 -7 8 -6 12 3 13 8 0 3 5 -11 11 l-25 11 25 7 c14 5 26 8 27 9 1 1 14
-11 28 -25z m394 -50 c43 -18 51 -17 51 1 0 13 7 15 38 9 46 -8 64 -22 60 -47
-3 -17 -13 -20 -90 -24 -76 -4 -88 -2 -88 11 0 19 -46 22 -52 4 -2 -6 -29 -13
-59 -15 -30 -2 -61 -4 -69 -5 -37 -3 -90 3 -90 10 0 4 13 22 30 40 l29 32 103
-1 c60 -1 117 -8 137 -15z m-509 -219 c0 -10 10 -15 29 -15 16 0 36 7 45 15
18 18 37 20 34 3 -2 -7 14 -15 39 -18 44 -7 61 -15 50 -26 -11 -12 -110 -24
-121 -15 -6 5 -31 11 -55 14 -49 6 -66 18 -58 41 8 20 37 21 37 1z m265 -35
c-3 -5 -17 -10 -31 -10 -14 0 -22 4 -19 10 3 6 17 10 31 10 14 0 22 -4 19 -10z
m775 -35 c0 -8 5 -15 10 -15 6 0 10 -41 10 -102 0 -87 -5 -116 -29 -186 -31
-87 -88 -192 -106 -192 -5 0 -16 -9 -23 -20 -13 -21 -32 -27 -32 -9 0 5 3 8 8
5 4 -2 12 7 19 20 7 16 8 24 1 24 -12 0 -10 8 27 105 29 74 75 286 75 341 0
29 9 41 33 43 4 1 7 -6 7 -14z m-1472 -41 c20 -35 -11 -84 -52 -84 -25 0 -56
28 -56 51 0 40 89 67 108 33z m322 -24 c11 -11 20 -29 20 -40 0 -21 -33 -60
-50 -60 -5 0 -20 -11 -34 -25 -29 -29 -52 -32 -78 -8 -20 18 -24 73 -8 103 26
48 115 65 150 30z m260 -90 c0 -11 -4 -20 -10 -20 -5 0 -10 5 -10 10 0 6 -8
10 -17 11 -15 0 -15 2 2 9 30 13 35 12 35 -10z m-579 -60 c10 -41 -6 -60 -51
-60 -29 0 -43 6 -54 22 -15 20 -14 24 6 45 31 33 89 29 99 -7z m-1024 -152
c-3 -8 -6 -5 -6 6 -1 11 2 17 5 13 3 -3 4 -12 1 -19z m2536 -76 c23 -20 22
-58 -3 -80 -11 -9 -25 -35 -31 -57 -9 -35 -73 -141 -119 -199 -41 -52 -178
-178 -198 -183 -57 -14 -67 66 -14 107 115 89 282 305 282 363 0 37 34 82 53
71 7 -4 20 -14 30 -22z m-1666 -144 c-3 -8 -6 -5 -6 6 -1 11 2 17 5 13 3 -3 4
-12 1 -19z m537 -75 c7 -35 5 -44 -12 -63 -19 -21 -24 -22 -72 -10 -29 7 -69
10 -91 7 -21 -3 -41 -2 -44 3 -7 11 -163 10 -208 -2 -45 -11 -76 4 -56 28 9
11 15 12 26 2 21 -17 129 -11 193 12 30 10 76 22 103 25 26 3 47 10 47 16 0 5
12 9 28 9 15 0 34 5 42 10 24 15 34 6 44 -37z m-1534 -137 c0 -3 -4 -8 -10
-11 -5 -3 -10 -1 -10 4 0 6 5 11 10 11 6 0 10 -2 10 -4z m1027 -122 c28 -8 34
-36 16 -71 -25 -48 -59 -57 -94 -22 -22 22 -19 50 9 82 16 18 33 21 69 11z
m666 -473 c4 -4 10 -46 13 -92 5 -76 3 -86 -15 -103 -15 -14 -27 -17 -48 -11
-15 4 -48 8 -72 8 l-43 -1 6 72 c8 84 14 106 28 106 5 0 22 9 36 21 27 20 74
21 95 0z m-1493 -206 c0 -8 -4 -15 -10 -15 -5 0 -10 7 -10 15 0 8 5 15 10 15
6 0 10 -7 10 -15z m1313 -30 c-3 -13 -53 -20 -53 -7 0 15 13 23 35 20 11 -2
19 -7 18 -13z m-1336 -41 c-3 -3 -12 -4 -19 -1 -8 3 -5 6 6 6 11 1 17 -2 13
-5z m3 -76 c0 -5 -9 -8 -19 -8 -17 0 -31 18 -31 41 0 11 49 -22 50 -33z"/>
<path d="M2070 3615 c-7 -9 -8 -15 -2 -15 5 0 12 7 16 15 3 8 4 15 2 15 -2 0
-9 -7 -16 -15z"/>
<path d="M2995 3643 c22 -3 43 -10 47 -16 4 -6 10 -8 15 -4 13 14 -20 27 -62
25 l-40 -1 40 -4z"/>
<path d="M1570 2935 c0 -8 5 -15 10 -15 6 0 10 7 10 15 0 8 -4 15 -10 15 -5 0
-10 -7 -10 -15z"/>
<path d="M2320 2971 c0 -13 37 -24 50 -16 6 4 8 11 5 16 -8 12 -55 12 -55 0z"/>
<path d="M2522 2955 c0 -16 2 -22 5 -12 2 9 2 23 0 30 -3 6 -5 -1 -5 -18z"/>
<path d="M5140 2053 c0 -5 5 -15 10 -23 7 -11 12 -12 21 -3 6 6 8 16 5 22 -8
12 -36 15 -36 4z"/>
<path d="M4930 2040 c0 -5 7 -7 15 -4 8 4 15 8 15 10 0 2 -7 4 -15 4 -8 0 -15
-4 -15 -10z"/>
<path d="M2796 3162 c-3 -5 13 -14 37 -20 23 -6 48 -20 56 -31 8 -10 20 -17
28 -14 7 3 13 -1 13 -10 0 -18 53 -63 58 -49 6 18 -39 81 -72 101 -38 24 -111
38 -120 23z"/>
<path d="M2771 3061 c-12 -8 -9 -16 15 -44 16 -20 35 -36 42 -36 6 -1 12 -5
12 -11 0 -5 11 -10 24 -10 14 0 28 -4 31 -10 3 -5 14 -10 23 -10 14 0 18 9 17
42 0 37 -4 44 -33 61 -18 11 -36 16 -40 13 -3 -4 3 -9 15 -12 12 -3 24 -12 26
-18 4 -9 -8 -6 -31 6 -20 10 -43 18 -52 19 -8 1 -4 5 10 9 23 7 22 8 -10 9
-19 0 -41 -3 -49 -8z m79 -47 c0 -9 -5 -14 -12 -12 -18 6 -21 28 -4 28 9 0 16
-7 16 -16z"/>
<path d="M1067 2991 c-4 -17 -3 -21 5 -13 5 5 8 16 6 23 -3 8 -7 3 -11 -10z"/>
<path d="M1350 2760 l-35 -18 55 -6 c75 -8 153 -2 158 12 2 7 -8 9 -32 5 -22
-3 -42 -1 -51 7 -24 20 -57 20 -95 0z"/>
<path d="M1207 2686 c-4 -9 -1 -16 6 -16 8 0 7 -4 -3 -10 -13 -8 -13 -9 0 -14
21 -6 81 -17 103 -17 9 0 17 -7 17 -15 0 -12 4 -12 19 -2 11 7 18 15 15 19 -2
4 1 11 7 15 8 4 9 3 5 -4 -13 -21 10 -13 33 12 l22 23 -80 7 c-45 3 -94 9
-109 12 -21 4 -31 2 -35 -10z"/>
<path d="M2915 2691 c-3 -5 4 -13 16 -16 23 -8 34 -1 24 14 -8 13 -32 14 -40
2z"/>
<path d="M2687 2683 c-8 -14 32 -107 55 -130 62 -60 62 -60 146 -62 58 -2 89
2 111 14 17 8 31 17 31 19 0 7 -138 76 -151 76 -8 0 -8 -4 1 -15 7 -8 19 -15
26 -15 8 0 14 -4 14 -10 0 -5 9 -10 21 -10 29 0 15 -16 -22 -24 -63 -12 -199
75 -187 122 7 24 -34 54 -45 35z m118 -151 c-3 -3 -11 0 -18 7 -9 10 -8 11 6
5 10 -3 15 -9 12 -12z m45 -18 c0 -2 -7 -4 -15 -4 -8 0 -15 4 -15 10 0 5 7 7
15 4 8 -4 15 -8 15 -10z"/>
<path d="M2755 2650 c3 -5 11 -10 16 -10 6 0 7 5 4 10 -3 6 -11 10 -16 10 -6
0 -7 -4 -4 -10z"/>
<path d="M1187 2633 c-4 -3 -7 -11 -7 -17 0 -6 5 -5 12 2 6 6 9 14 7 17 -3 3
-9 2 -12 -2z"/>
<path d="M2800 2631 c0 -5 7 -12 16 -15 14 -5 15 -4 4 9 -14 17 -20 19 -20 6z"/>
<path d="M1950 2611 c0 -7 5 -9 10 -6 13 8 13 -11 -1 -37 -8 -15 -6 -36 7 -84
9 -35 21 -64 26 -64 7 0 113 24 253 58 17 5 36 19 45 35 14 25 13 28 -5 46
-23 22 -92 41 -80 21 5 -8 -3 -7 -21 3 -16 8 -58 17 -94 21 -36 4 -82 10 -102
13 -26 4 -38 2 -38 -6z m53 -25 c7 4 8 3 4 -1 -17 -19 -35 -13 -29 9 5 18 7
18 10 3 2 -10 8 -14 15 -11z m187 -36 c-19 -13 -30 -13 -30 0 0 6 10 10 23 10
18 0 19 -2 7 -10z"/>
<path d="M880 2589 c-14 -11 -34 -28 -45 -37 -11 -10 -36 -27 -55 -39 -19 -12
-44 -30 -55 -40 -11 -10 -31 -26 -45 -36 -13 -9 -20 -17 -15 -17 6 0 33 15 60
33 46 31 96 47 235 78 47 10 78 29 47 29 -19 0 -53 17 -75 38 -18 16 -22 15
-52 -9z"/>
<path d="M2840 2600 c0 -5 5 -10 10 -10 6 0 10 5 10 10 0 6 -4 10 -10 10 -5 0
-10 -4 -10 -10z"/>
<path d="M2720 2526 c0 -2 8 -10 18 -17 15 -13 16 -12 3 4 -13 16 -21 21 -21
13z"/>
<path d="M2780 2480 c0 -14 70 -32 110 -28 33 4 32 4 -15 11 -27 5 -58 12 -67
18 -22 11 -28 11 -28 -1z"/>
<path d="M1190 2392 c0 -12 19 -26 26 -19 2 2 -2 10 -11 17 -9 8 -15 8 -15 2z"/>
<path d="M573 2363 c-14 -5 -18 -33 -5 -33 4 0 13 9 20 20 12 20 8 23 -15 13z"/>
<path d="M1103 2288 c38 -69 57 -149 49 -216 -2 -26 0 -48 7 -55 9 -9 11 14 9
98 l-4 110 -42 63 c-24 34 -45 62 -48 62 -3 0 10 -28 29 -62z"/>
<path d="M848 2253 c7 -3 16 -2 19 1 4 3 -2 6 -13 5 -11 0 -14 -3 -6 -6z"/>
<path d="M2148 2183 c-10 -3 -18 -9 -18 -14 0 -6 5 -7 10 -4 6 3 10 1 10 -4 0
-16 17 -13 23 4 7 17 -1 23 -25 18z"/>
<path d="M1053 2118 c0 -38 4 -68 9 -68 10 0 9 42 -1 95 -8 36 -9 33 -8 -27z"/>
<path d="M2308 2080 c18 -11 38 -20 45 -19 6 0 2 5 -10 11 -13 6 -23 15 -23
20 0 4 -10 8 -22 8 -20 0 -19 -2 10 -20z"/>
<path d="M109 2002 c-19 -14 -37 -31 -41 -37 -14 -19 -8 -52 12 -70 17 -16 24
-16 65 -5 25 7 45 18 45 25 0 7 -10 36 -23 63 l-23 50 -35 -26z"/>
<path d="M2970 1810 c0 -5 5 -10 11 -10 5 0 7 5 4 10 -3 6 -8 10 -11 10 -2 0
-4 -4 -4 -10z"/>
<path d="M2320 1325 c0 -13 4 -14 20 -5 11 6 20 13 20 15 0 3 -9 5 -20 5 -11
0 -20 -7 -20 -15z"/>
<path d="M1307 1302 c-33 -36 -11 -92 36 -92 27 0 40 9 55 35 13 25 -2 55 -28
55 -11 0 -20 5 -20 10 0 16 -26 11 -43 -8z"/>
<path d="M6095 1220 c-19 -7 -19 -8 -2 -15 19 -8 31 -2 26 13 -2 5 -13 6 -24
2z"/>
<path d="M5950 1200 c-13 -8 -12 -11 5 -24 26 -20 41 -20 49 0 12 31 -20 46
-54 24z"/>
<path d="M6035 1170 c-17 -19 -17 -21 3 -68 40 -94 45 -208 19 -447 -1 -11 4
-20 11 -19 6 1 21 2 32 3 19 1 20 8 20 253 l0 252 -27 23 c-32 28 -35 28 -58
3z"/>
<path d="M5802 1158 c-17 -13 -41 -41 -52 -63 -27 -56 -43 -214 -34 -352 l6
-113 50 0 c38 0 49 3 45 13 -15 38 -28 217 -25 328 3 118 5 128 31 167 31 47
26 52 -21 20z"/>
<path d="M5877 1159 c-57 -33 -77 -163 -53 -349 26 -198 16 -180 98 -180 l70
0 -6 63 c-3 34 -11 112 -17 173 -7 80 -7 134 0 189 6 42 11 79 11 81 0 6 -65
34 -77 34 -4 0 -16 -5 -26 -11z"/>
<path d="M2430 1133 c-19 -9 -44 -20 -55 -25 -11 -5 -42 -29 -70 -53 l-50 -44
71 37 c125 65 154 82 154 92 0 13 -8 12 -50 -7z"/>
<path d="M2231 1111 c-23 -31 -27 -46 -11 -36 11 7 43 65 36 65 -3 0 -14 -13
-25 -29z"/>
<path d="M6004 1085 c-8 -20 3 -346 14 -415 13 -79 24 -26 29 138 3 97 1 180
-6 217 -12 66 -26 89 -37 60z"/>
<path d="M1462 814 c-53 -37 -1 -89 59 -58 36 18 46 39 29 59 -16 19 -60 19
-88 -1z"/>
<path d="M6095 493 c-6 -53 -35 -249 -40 -273 -1 -8 -3 -2 -4 14 -1 21 -5 27
-16 22 -10 -3 -15 1 -16 12 0 13 -3 11 -12 -7 -13 -28 -64 -81 -78 -81 -5 0
-9 -4 -9 -8 0 -7 -62 -42 -75 -42 -2 0 -5 8 -8 18 -3 14 -6 13 -15 -8 -6 -14
-13 -37 -16 -52 -5 -20 -13 -28 -27 -28 -12 0 -23 -8 -26 -20 -3 -11 -9 -20
-14 -20 -5 0 -9 -4 -9 -10 0 -6 72 -10 195 -10 l195 0 0 270 c0 162 -4 270 -9
270 -6 0 -12 -21 -16 -47z"/>
<path d="M1600 325 c-20 -21 -22 -28 -12 -50 15 -33 60 -34 91 -1 27 29 21 61
-12 70 -35 9 -42 7 -67 -19z"/>
<path d="M745 263 c-4 -16 -13 -43 -21 -62 -15 -33 -11 -71 7 -71 5 0 9 -14 9
-30 0 -22 -10 -40 -37 -65 l-37 -35 51 0 50 0 7 52 c12 104 4 238 -15 238 -5
0 -11 -12 -14 -27z"/>
</g>
</svg>
